<?xml version="1.0" standalone="no"?>
<!DOCTYPE svg PUBLIC "-//W3C//DTD SVG 20010904//EN"
 "http://www.w3.org/TR/2001/REC-SVG-20010904/DTD/svg10.dtd">
<svg version="1.0" xmlns="http://www.w3.org/2000/svg"
 width="375.000000pt" height="375.000000pt" viewBox="0 0 375.000000 375.000000"
 preserveAspectRatio="xMidYMid meet">
<metadata>
Created by potrace 1.14, written by Peter Selinger 2001-2017
</metadata>
<g transform="translate(0.000000,375.000000) scale(0.100000,-0.100000)"
fill="#000000" stroke="none">
<path d="M3372 3663 c-7 -3 -22 -26 -33 -51 -12 -26 -32 -69 -44 -97 -13 -27
-82 -180 -153 -340 l-130 -290 -1141 -3 -1142 -2 -71 147 c-38 82 -89 189
-113 238 -125 264 -175 365 -180 365 -14 0 -45 -21 -45 -30 0 -6 -16 -45 -36
-87 -19 -43 -43 -94 -51 -113 -26 -59 -48 -107 -138 -305 -47 -104 -84 -196
-82 -205 4 -14 270 -420 608 -928 71 -106 129 -195 129 -198 0 -3 5 -10 11
-17 6 -7 60 -86 120 -177 60 -91 113 -172 119 -180 16 -25 500 -755 686 -1037
160 -243 175 -262 196 -255 15 5 83 98 195 268 95 142 178 266 183 274 11 15
193 291 550 831 156 237 749 1132 896 1355 19 28 34 55 34 61 0 7 -348 775
-354 779 0 1 -7 -1 -14 -3z"/>
</g>
</svg>
